<?xml version="1.0" encoding="UTF-8"?>
<svg id="Camada_1" xmlns="http://www.w3.org/2000/svg" viewBox="0 0 250.54 221">
  <defs>
    <style>
      .cls-1 {
        fill: none;
        stroke: #4b84c4;
        stroke-miterlimit: 10;
        stroke-width: 11px;
      }

      .cls-2 {
        fill: #4b84c4;
      }
    </style>
  </defs>
  <path class="cls-1" d="M215.5,34.72v151.56c0,16.14-13.08,29.22-29.22,29.22H34.72c-16.14,0-29.22-13.08-29.22-29.22V34.72c0-16.14,13.08-29.22,29.22-29.22h151.56c12.66,0,23.43,8.04,27.49,19.3,1.12,3.1,1.73,6.44,1.73,9.92Z"/>
  <rect class="cls-2" x="72.1" y="78.93" width="28.06" height="102.98" rx="14.03" ry="14.03" transform="translate(-68.85 110.24) rotate(-49.14)"/>
  <path class="cls-2" d="M105.06,164.06h0c-5.29-5.66-5.53-13.96-.53-18.54l123.25-112.81c5-4.58,13.34-3.7,18.63,1.96h0c5.29,5.66,5.53,13.96.53,18.54l-123.25,112.81c-5,4.58-13.34,3.7-18.63-1.96Z"/>
</svg>