<?xml version="1.0" encoding="UTF-8"?>
<svg id="Camada_1" xmlns="http://www.w3.org/2000/svg" viewBox="0 0 48.18 65.45">
  <defs>
    <style>
      .cls-1 {
        fill: #b2b2b2;
      }
    </style>
  </defs>
  <path class="cls-1" d="M1.25.94h0c1.67-1.25,4.38-1.25,6.05,0l39.63,29.59c1.67,1.25,1.67,3.27,0,4.52h0c-1.67,1.25-4.38,1.25-6.05,0L1.25,5.45C-.42,4.2-.42,2.18,1.25.94Z"/>
  <path class="cls-1" d="M1.25,64.52h0c-1.67-1.25-1.67-3.27,0-4.52l39.63-29.59c1.67-1.25,4.38-1.25,6.05,0h0c1.67,1.25,1.67,3.27,0,4.52L7.3,64.52c-1.67,1.25-4.38,1.25-6.05,0Z"/>
</svg>